<svg id="Layer_1" data-name="Layer 1" xmlns="http://www.w3.org/2000/svg" viewBox="0 0 86.91 57.63"><defs><style>.cls-1,.cls-2{fill:#fff;stroke:#a4d2b3;stroke-miterlimit:10;}.cls-1{stroke-width:2px;}</style></defs><path class="cls-1" d="M14.08,17.41c5.29-5.89,11.56-8,16-9.51,4.31-1.41,21.64-7.09,28.68.56,4.64,5.06.61,11.36,5.27,15.26,5.88,4.92,14.79-3,21.73,1.44,6.18,4,7.94,16.06,3.43,24.28C84,59.08,71.05,61.57,62.48,59.5,52.21,57,51.42,48.74,42,48.16s-13.85,7.21-19,4.31c-4.58-2.56-2.85-9.68-9.51-14-3-2-4.49-1.2-5.75-3C4.81,31.16,9.61,22.38,14.08,17.41Z" transform="translate(-5.86 -3.55)"/><path class="cls-2" d="M111.12,16.29" transform="translate(-5.86 -3.55)"/></svg>