<svg width="288" height="304" viewBox="0 0 288 304" fill="none" xmlns="http://www.w3.org/2000/svg">
<path d="M107.385 176.715L88.1669 200.276C88.1669 200.276 45.1721 217.541 30.5273 230.347C15.8825 243.153 4.23438 303.232 4.23438 303.232H285.772C285.772 303.232 288.419 245.899 275.665 229.432C262.91 212.965 219.913 206.526 195.213 181.845C186.744 173.377 180.188 167.028 175.162 162.428C170.725 158.382 153.649 188.571 153.649 188.571L107.385 176.715Z" fill="#0D2C37"/>
<path fill-rule="evenodd" clip-rule="evenodd" d="M234.483 251.189L210.93 194.378L211.643 194.082L235.638 251.96H198.675L181.714 277.404L181.072 276.976L198.262 251.189H234.483Z" fill="#23CF9F"/>
<path fill-rule="evenodd" clip-rule="evenodd" d="M106.447 177.08C106.447 177.08 106.447 177.08 106.743 177.328C107.038 177.576 107.038 177.577 107.037 177.577L106.888 177.755C106.789 177.873 106.642 178.048 106.45 178.278C106.066 178.737 105.502 179.414 104.781 180.282C103.339 182.02 101.269 184.526 98.7608 187.601C93.7443 193.749 86.9733 202.17 79.955 211.256C72.9361 220.344 65.6724 230.094 59.6692 238.904C53.8305 247.473 49.2053 255.121 47.1453 260.398L77.3611 264.036L79.8895 303.089L79.1195 303.138L76.6324 264.725L46.0768 261.047L46.2473 260.588C48.2481 255.203 53.0232 247.287 59.0316 238.47C65.0469 229.642 72.321 219.878 79.3442 210.785C86.368 201.691 93.1435 193.265 98.1629 187.113C100.673 184.037 102.744 181.529 104.187 179.789C104.909 178.92 105.474 178.243 105.858 177.783C106.051 177.553 106.198 177.377 106.297 177.259L106.447 177.08Z" fill="#23CF9F"/>
<path d="M181.12 97.99C181.12 97.99 188.135 93.4144 190.574 95.8538C193.014 98.2932 193.929 112.321 190.574 118.724C187.22 125.127 185.086 134.276 178.377 130.921C171.668 127.566 181.12 97.99 181.12 97.99Z" fill="#F0CAB4"/>
<path d="M98.482 97.991C98.482 97.991 92.0788 90.0689 89.6394 93.7213C87.1999 97.3736 92.3847 120.861 94.062 126.043C95.7393 131.225 99.7031 136.107 102.752 128.775C105.8 121.443 98.482 97.991 98.482 97.991Z" fill="#DFBFAC"/>
<path d="M99.585 110.943C99.585 110.943 94.8181 109.798 95.5038 115.821C96.1895 121.845 94.8946 124.131 96.4954 123.978C98.0962 123.825 97.793 118.031 100.003 120.471C102.213 122.91 99.585 110.943 99.585 110.943Z" fill="#C9AB9A"/>
<path d="M98.0853 104.262C98.0853 104.262 94.5805 98.7333 92.458 99.7304C90.3354 100.727 94.138 117.186 94.138 117.186C94.138 117.186 90.8599 100.823 99.6014 109.693C108.343 118.563 98.0853 104.262 98.0853 104.262Z" fill="#C9AB9A"/>
<path d="M108.483 150.744V180.932C108.483 180.932 138.215 194.656 156.734 187.338C175.252 180.02 173.201 164.938 173.201 164.938L173.269 138.866L108.483 150.744Z" fill="#C9AB9A"/>
<path d="M108.245 163.099L102.937 204.559L79.1518 303.363H155.094C155.094 303.363 182.234 233.223 184.979 212.18C184.979 212.18 173.896 159.985 173.591 154.8C172.361 155.756 153.376 199.915 108.245 163.099Z" fill="#375559"/>
<path d="M108.245 162.714L102.918 203.529L105.677 204.704C105.677 204.704 104.093 195.847 130.856 196.782C150.158 197.451 158.135 180.189 161.082 170.51C149.806 178.389 132.828 182.768 108.245 162.714Z" fill="#424F54"/>
<path d="M183.983 73.9003C183.983 73.9003 179.713 112.314 179.407 124.519C179.101 136.725 178.186 145.865 175.746 151.353C173.307 156.841 155.504 183.984 139.401 183.678C123.297 183.372 102.249 147.695 102.249 143.426C102.249 139.156 97.9794 107.443 97.3702 98.8984C96.7611 90.3535 92.4914 64.443 104.689 54.3711C116.886 44.2992 172.69 40.0377 180.923 54.3711C189.156 68.7045 183.983 73.9003 183.983 73.9003Z" fill="#FFE6D7"/>
<path fill-rule="evenodd" clip-rule="evenodd" d="M158.263 94.7499L152.39 54.8666L153.154 54.7542L159.027 94.6375L158.263 94.7499Z" fill="#FFFBF5"/>
<path d="M161.877 111.56C161.877 111.56 151.712 126.656 151.816 135.7C151.816 135.7 149.71 130.488 147.104 130.45C147.104 130.45 147.183 125.639 143.552 122.181L154.458 110.161L161.877 111.56Z" fill="#F0CAB4"/>
<path d="M97.3805 98.9029C97.9896 107.442 102.259 139.155 102.259 143.43C102.259 146.012 109.955 160.077 119.598 170.862C120.619 162.921 105.767 147.394 104.06 131.645C102.352 115.897 107.048 113.395 107.048 113.395L107.081 102.809C98.6371 71.9407 120.611 54.6925 120.611 54.6925L115.454 49.4558C110.75 50.8435 106.969 52.5154 104.699 54.3893C92.5016 64.4476 96.7686 90.3663 97.3805 98.9029Z" fill="#F0CAB4"/>
<path d="M130.402 132.448C130.402 132.448 127.758 137.021 132.334 138.852C136.909 140.682 133.213 149.505 133.213 149.505L141.75 149.82L140.226 139.832C140.226 139.832 147.874 137.622 146.97 133.965C146.066 130.307 139.652 135.489 136.297 134.88C134.191 134.468 132.187 133.642 130.402 132.448Z" fill="#C9AB9A"/>
<path d="M156.272 45.4517L162.615 88.5639C162.615 88.5639 128.629 91.353 129.397 104.135L134.879 106.929L147.533 105.946L173.67 112.658C173.67 112.658 159.113 127.488 161.104 141.114C163.095 154.74 168.16 165.651 150.076 179.099C143.413 184.054 135.338 182.546 127.793 178.67C131.713 181.675 135.688 183.634 139.4 183.705C155.518 184.011 173.307 156.871 175.746 151.383C178.186 145.895 179.101 136.746 179.407 124.546C179.713 112.346 183.98 73.9273 183.98 73.9273C183.98 73.9273 189.17 68.737 180.931 54.4118C177.833 49.0166 167.991 46.2575 156.272 45.4517Z" fill="#F0CAB4"/>
<path d="M175.071 105.63C172.967 109.965 175.992 116.368 176.437 127.347C176.882 138.326 168.864 139.574 166.807 151.872C164.75 164.171 164.404 166.424 156.684 175.472L156.602 175.573C166.163 167.2 173.872 155.019 175.421 151.534C177.86 146.043 178.772 136.897 179.078 124.697C179.384 112.497 183.654 74.078 183.654 74.078C183.654 74.078 188.418 69.2974 181.512 56.2179L169.867 49.5962C169.867 49.5962 177.177 101.278 175.071 105.63Z" fill="#C9AB9A"/>
<path d="M134.527 107.047C134.527 107.047 112.17 92.1563 103.707 98.7999C95.2446 105.443 102.432 108.413 102.432 108.413C103.751 110.871 105.666 112.96 108.001 114.487C110.336 116.014 113.017 116.931 115.798 117.154C125.455 117.955 134.527 107.047 134.527 107.047Z" fill="#C9AB9A"/>
<path d="M142.821 108.301L142.176 124.205C142.176 124.205 147.366 125.882 146.752 132.742C146.752 132.742 151.223 129.846 144.49 123.29C144.49 123.29 148.276 121.154 150.259 115.972C150.259 115.972 175.569 117.19 176.331 108.806C177.093 100.423 172.452 100.013 172.452 100.013L147.667 99.6577C147.667 99.6577 142.821 102.657 142.821 108.301Z" fill="#C9AB9A"/>
<path d="M177.423 67.6495L180.931 99.8184C180.931 99.8184 183.553 96.1606 186.474 95.4695L189.621 63.5328H194.349C194.349 63.5328 195.95 45.0827 187.717 42.5667L187.258 34.5628L181.084 37.3082L181.77 29.3014L177.423 30.2166C177.423 30.2166 159.356 18.3253 148.38 19.2405C137.404 20.1556 136.245 22.2126 136.245 22.2126C136.245 22.2126 122.068 13.064 113.845 25.6437C113.845 25.6437 100.124 29.7604 99.8942 31.8174L92.8053 30.4515V39.8295C92.8053 39.8295 82.7416 47.6041 82.2827 68.4171C81.8237 89.2302 86.6289 106.604 86.6289 106.604L90.2402 108.926C90.2402 108.926 87.4593 86.34 96.6079 95.9448L97.7252 97.3407C97.7252 97.3407 92.8108 70.2447 104.011 62.4647C115.211 54.6847 129.397 57.6623 129.397 57.6623C129.397 57.6623 125.736 50.5598 131.454 53.0866L137.171 55.6026C137.171 55.6026 161.416 54.2367 165.532 53.3161C169.649 52.3955 172.392 62.7706 174.908 65.2101L177.423 67.6495Z" fill="#23CF9F"/>
<path d="M129.396 57.5588C129.396 57.5588 95.6568 51.7812 103.494 95.0355H101.093L100.077 87.7226V97.0733L99.1617 99.2068C99.1617 99.2068 91.0211 45.3862 129.396 57.5588Z" fill="#23CF9F"/>
<path fill-rule="evenodd" clip-rule="evenodd" d="M110.688 207.744C110.687 207.744 110.687 207.743 110.952 207.463C111.138 207.265 111.193 207.207 111.21 207.189C111.217 207.182 111.217 207.182 111.217 207.182L111.217 207.182L111.22 207.185L111.233 207.198C111.245 207.209 111.264 207.226 111.289 207.249C111.339 207.294 111.415 207.362 111.517 207.45C111.72 207.626 112.025 207.883 112.429 208.202C113.238 208.841 114.446 209.731 116.031 210.728C119.203 212.723 123.886 215.146 129.924 216.849C141.99 220.253 159.498 220.796 181.211 209.255L181.573 209.937C159.68 221.573 141.967 221.048 129.715 217.592C123.594 215.865 118.843 213.408 115.621 211.382C114.009 210.368 112.78 209.462 111.951 208.808C111.537 208.48 111.222 208.216 111.011 208.033C110.905 207.941 110.825 207.869 110.771 207.821C110.744 207.796 110.724 207.777 110.71 207.764L110.693 207.749L110.689 207.745L110.688 207.744Z" fill="#0D2C37"/>
<path d="M121.338 149.602C121.338 149.602 129.648 155.166 137.27 156.081C144.891 156.996 157.007 149.602 157.007 149.602H121.338Z" fill="#C9AB9A"/>
<path d="M121.338 149.602L133.904 147.313C135.089 147.852 136.376 148.131 137.678 148.131C138.98 148.131 140.267 147.852 141.452 147.313L157.007 149.602C157.007 149.602 137.322 154.353 121.338 149.602Z" fill="#756057"/>
<path fill-rule="evenodd" clip-rule="evenodd" d="M157.007 149.601L157.007 149.601C157.098 149.976 157.097 149.976 157.097 149.977L157.093 149.977L157.082 149.98L157.038 149.991C157 150 156.942 150.013 156.868 150.03C156.718 150.064 156.496 150.113 156.21 150.174C155.636 150.295 154.8 150.463 153.748 150.649C151.643 151.022 148.67 151.469 145.196 151.767C138.254 152.363 129.28 152.366 121.221 149.971L121.441 149.232C129.365 151.587 138.229 151.59 145.13 150.998C148.577 150.703 151.526 150.259 153.613 149.889C154.657 149.705 155.484 149.539 156.05 149.419C156.333 149.359 156.55 149.311 156.697 149.277C156.77 149.261 156.825 149.248 156.862 149.239L156.904 149.229L156.914 149.227L156.917 149.226C156.917 149.226 156.917 149.226 157.007 149.601Z" fill="#46403C"/>
<path d="M131.056 101.401C131.056 101.401 120.992 94.9981 113.217 95.7603C105.443 96.5224 103.93 97.2218 104.069 98.5494C104.208 99.877 111.226 98.5057 117.558 99.877C123.89 101.248 129.37 105.824 131.056 101.401Z" fill="#756057"/>
<path d="M145.684 101.251C145.684 101.251 154.985 93.195 164.896 95.6973C174.807 98.1996 175.416 101.251 175.416 101.251C171.639 100.458 167.822 99.8704 163.981 99.4917C158.187 98.9617 151.631 105.518 145.684 101.251Z" fill="#756057"/>
<path fill-rule="evenodd" clip-rule="evenodd" d="M104.274 99.3929C104.004 99.279 103.72 99.0704 103.677 98.6996L104.443 98.6113C104.443 98.6076 104.442 98.6047 104.442 98.6023C104.451 98.6146 104.483 98.6436 104.574 98.682C104.738 98.7513 105.002 98.8075 105.381 98.8463C106.122 98.9221 107.163 98.9199 108.427 98.9172L108.487 98.9171C111.044 98.9116 114.418 98.9102 117.631 99.606C119.244 99.9553 120.797 100.507 122.233 101.062C122.647 101.222 123.049 101.381 123.441 101.536C124.418 101.923 125.324 102.282 126.162 102.551C127.34 102.929 128.299 103.1 129.044 102.95C129.743 102.809 130.306 102.373 130.686 101.371L131.408 101.644C130.949 102.853 130.197 103.504 129.197 103.706C128.244 103.899 127.121 103.669 125.926 103.285C125.063 103.008 124.119 102.634 123.131 102.243C122.745 102.091 122.352 101.935 121.955 101.782C120.529 101.231 119.021 100.697 117.468 100.36C114.348 99.6846 111.055 99.6832 108.488 99.6887C108.455 99.6888 108.422 99.6889 108.389 99.6889C107.159 99.6916 106.084 99.694 105.303 99.614C104.904 99.5732 104.547 99.5081 104.274 99.3929ZM104.438 98.596C104.439 98.5959 104.44 98.5979 104.442 98.6023C104.438 98.5983 104.438 98.596 104.438 98.596Z" fill="#46403D"/>
<path fill-rule="evenodd" clip-rule="evenodd" d="M159.4 99.8694C160.939 99.3906 162.493 99.0629 164.016 99.2022L164.019 99.2025L164.019 99.2025C167.874 99.5826 171.705 100.172 175.496 100.968L175.337 101.723C171.574 100.933 167.771 100.348 163.945 99.9706C162.572 99.8453 161.133 100.138 159.629 100.606C158.878 100.84 158.118 101.114 157.346 101.398C157.248 101.434 157.15 101.47 157.051 101.506C156.377 101.754 155.695 102.005 155.012 102.233C151.883 103.28 148.592 103.909 145.454 101.659L145.903 101.032C148.718 103.05 151.68 102.534 154.767 101.502C155.439 101.277 156.109 101.03 156.784 100.782C156.882 100.746 156.981 100.709 157.08 100.673C157.852 100.39 158.628 100.109 159.4 99.8694Z" fill="#46403D"/>
<path d="M127.504 108.357C127.504 108.357 114.088 95.8543 107.073 108.357C107.082 108.357 118.823 109.882 127.504 108.357Z" fill="white"/>
<path d="M171.272 107.645C162.326 96.262 150.942 108.156 150.942 108.156C150.942 108.156 165.579 111.612 171.272 107.645Z" fill="white"/>
<path d="M121.996 108.943C122.447 108.414 122.764 107.784 122.919 107.107C123.075 106.43 123.065 105.725 122.89 105.053C120.865 103.914 118.377 102.895 115.853 102.804C115.412 103.176 115.05 103.632 114.788 104.145C114.525 104.658 114.367 105.218 114.322 105.793C114.278 106.367 114.348 106.945 114.529 107.492C114.709 108.04 114.997 108.546 115.375 108.981C117.442 109.049 119.721 109.06 121.996 108.943Z" fill="#11967F"/>
<path d="M164.953 106.132C164.954 105.49 164.812 104.857 164.539 104.276C164.265 103.696 163.866 103.183 163.371 102.775C160.987 102.518 158.703 103.149 156.755 104.061C156.307 104.895 156.141 105.852 156.284 106.788C156.426 107.724 156.869 108.589 157.545 109.252C159.456 109.473 161.379 109.573 163.303 109.549C163.818 109.142 164.235 108.622 164.52 108.03C164.806 107.438 164.954 106.789 164.953 106.132Z" fill="#11967F"/>
<path d="M160.593 108.154C161.71 108.154 162.615 107.249 162.615 106.132C162.615 105.016 161.71 104.111 160.593 104.111C159.477 104.111 158.572 105.016 158.572 106.132C158.572 107.249 159.477 108.154 160.593 108.154Z" fill="#03463A"/>
<path d="M118.669 108.154C119.786 108.154 120.691 107.249 120.691 106.132C120.691 105.016 119.786 104.111 118.669 104.111C117.553 104.111 116.648 105.016 116.648 106.132C116.648 107.249 117.553 108.154 118.669 108.154Z" fill="#03463A"/>
<path fill-rule="evenodd" clip-rule="evenodd" d="M107.492 108.528C107.492 108.528 107.492 108.528 107.081 108.358C106.67 108.188 106.67 108.187 106.67 108.187L106.671 108.186L106.672 108.183L106.676 108.174L106.69 108.142C106.702 108.115 106.719 108.076 106.742 108.026C106.788 107.928 106.857 107.788 106.949 107.615C107.133 107.27 107.413 106.795 107.797 106.268C108.562 105.217 109.755 103.941 111.451 103.086C113.156 102.228 115.346 101.808 118.069 102.441C120.782 103.072 124.004 104.742 127.802 108.021L127.221 108.695C123.492 105.475 120.397 103.896 117.868 103.308C115.349 102.722 113.372 103.115 111.851 103.881C110.321 104.652 109.229 105.813 108.516 106.792C108.16 107.28 107.902 107.719 107.734 108.034C107.65 108.192 107.588 108.318 107.548 108.404C107.528 108.446 107.514 108.479 107.504 108.5L107.494 108.523L107.492 108.528L107.492 108.528Z" fill="#46403C"/>
<path fill-rule="evenodd" clip-rule="evenodd" d="M151.278 108.448C151.278 108.448 151.278 108.447 150.942 108.156C150.606 107.864 150.607 107.864 150.607 107.863L150.607 107.863L150.609 107.86L150.616 107.853L150.642 107.824C150.664 107.799 150.697 107.763 150.739 107.717C150.823 107.626 150.947 107.495 151.108 107.333C151.429 107.009 151.897 106.562 152.488 106.063C153.669 105.069 155.353 103.861 157.353 103.03C159.355 102.199 161.692 101.739 164.158 102.273C166.629 102.808 169.178 104.329 171.619 107.366L170.925 107.923C168.588 105.015 166.206 103.627 163.97 103.143C161.729 102.658 159.58 103.069 157.694 103.852C155.806 104.636 154.2 105.785 153.062 106.744C152.494 107.222 152.045 107.651 151.74 107.959C151.587 108.113 151.47 108.237 151.392 108.321C151.353 108.363 151.324 108.396 151.305 108.417L151.284 108.441L151.279 108.446L151.278 108.447L151.278 108.448Z" fill="#46403C"/>
<path fill-rule="evenodd" clip-rule="evenodd" d="M127.691 110.433L127.818 110.797C127.946 111.161 127.946 111.161 127.946 111.161L127.94 111.163L127.924 111.169C127.91 111.174 127.889 111.181 127.862 111.191C127.807 111.209 127.725 111.237 127.619 111.273C127.407 111.344 127.097 111.446 126.703 111.572C125.914 111.824 124.787 112.168 123.433 112.541C120.726 113.287 117.104 114.149 113.457 114.608L113.36 113.843C116.957 113.39 120.54 112.538 123.228 111.797C124.571 111.427 125.688 111.086 126.469 110.837C126.859 110.712 127.165 110.611 127.374 110.541C127.478 110.506 127.557 110.479 127.611 110.461C127.637 110.452 127.658 110.445 127.671 110.44L127.686 110.435L127.691 110.433Z" fill="#FFE6D7"/>
<path fill-rule="evenodd" clip-rule="evenodd" d="M149.838 111.099C149.838 111.098 149.838 111.098 150.079 110.797C150.32 110.496 150.32 110.496 150.32 110.496L150.321 110.496L150.324 110.499L150.338 110.51C150.351 110.52 150.372 110.536 150.399 110.557C150.455 110.598 150.54 110.66 150.653 110.738C150.88 110.895 151.22 111.117 151.668 111.373C152.564 111.887 153.89 112.539 155.599 113.086C159.015 114.18 163.969 114.856 170.101 113.157L170.307 113.901C164.012 115.644 158.903 114.954 155.364 113.821C153.595 113.255 152.22 112.579 151.284 112.043C150.816 111.775 150.458 111.541 150.215 111.373C150.093 111.289 150.001 111.222 149.938 111.175C149.906 111.151 149.882 111.133 149.865 111.12C149.857 111.113 149.85 111.108 149.846 111.105L149.84 111.1L149.839 111.099L149.838 111.099Z" fill="#FFE6D7"/>
<path d="M188.129 48.2842C188.129 48.2842 178.568 39.5945 171.146 55.1463C171.146 55.1463 170.053 48.1312 173.148 44.4734L165.406 53.3078C169.523 52.3927 172.266 62.7623 174.782 65.2018L177.298 67.6412L177.549 69.9441C179.142 67.5319 182.553 62.8416 185.471 62.0002C189.427 60.8556 175.847 58.3397 175.847 58.3397C175.847 58.3397 178.98 44.0199 188.129 48.2842Z" fill="#003639"/>
<path d="M104.699 54.5617C101.509 58.7194 100.812 60.5879 103.669 62.8962C103.781 62.8115 103.893 62.7241 104.011 62.6449C115.211 54.8676 129.397 57.8425 129.397 57.8425C129.397 57.8425 125.736 50.74 131.454 53.2668L137.171 55.7828C137.171 55.7828 160.896 54.4388 165.39 53.5264L165.406 53.4963C165.406 53.4963 167.349 37.6386 161.107 28.3398V48.0083C161.107 48.0083 159.894 36.2618 157.913 31.6916L156.233 39.7748L150.942 39.9223L152.27 49.6254C152.27 49.6254 139.007 51.9365 135.805 49.6254C132.604 47.3144 127.799 30.1646 124.141 26.0479L126.198 39.7721L118.669 28.1076C118.669 28.1076 122.062 48.4617 121.338 51.6633C120.614 54.8649 92.8107 40.0015 92.8107 40.0015C92.8107 40.0015 109.499 48.3115 104.699 54.5617Z" fill="#003639"/>
<path d="M99.9375 62.8961C95.8645 63.325 92.1985 88.0799 91.2834 84.1162C90.3683 80.1525 92.8104 60.331 92.8104 60.331C88.232 69.6189 86.104 84.5724 86.104 84.5724C82.897 66.8872 86.899 47.8442 86.899 47.8442C84.6125 52.4062 82.4872 59.1044 82.2823 68.4087C81.8261 89.2191 86.6285 106.601 86.6285 106.601L90.2399 108.923C90.2399 108.923 87.459 86.3371 96.6075 95.9419L97.7248 97.3378C97.7248 97.3378 93.6982 75.1616 101.227 65.1771C100.855 63.6883 100.427 62.8442 99.9375 62.8961Z" fill="#003639"/>
<path d="M135.538 136.626C135.538 136.626 131.877 132.154 130.965 134.085C130.053 136.017 135.538 136.626 135.538 136.626Z" fill="#46403C"/>
<path d="M141.272 136.626C141.272 136.626 144.178 132.304 145.602 133.602C147.025 134.899 141.272 136.626 141.272 136.626Z" fill="#46403C"/>
<path d="M114.304 157.045C114.304 157.045 128.635 165.483 134.327 167.516C134.327 167.516 125.993 168.431 131.175 177.883C131.175 177.875 113.998 164.465 114.304 157.045Z" fill="#FFFBF5"/>
<path d="M132.995 62.8969C132.995 62.8969 134.765 84.2672 132.995 88.2337C131.225 92.2002 122.991 93.0115 117.501 92.7574C112.01 92.5034 115.181 83.964 125.641 83.3521C125.641 83.3576 125.007 57.0755 132.995 62.8969Z" fill="#FFFBF5"/>
<path d="M119.275 67.4582C119.275 67.4582 116.27 85.2581 110.654 84.5643C105.038 83.8704 112.135 65.9885 115.251 64.8958C118.368 63.8031 119.275 67.4582 119.275 67.4582Z" fill="#FFFBF5"/>
<path d="M119.999 152.88C119.999 152.88 131.418 158.071 139.176 157.86C146.934 157.65 157.552 150.558 160.352 152.269C163.153 153.979 161.992 161.83 157.506 164.168C153.021 166.506 110.785 154.55 119.999 152.88Z" fill="#F0CAB4"/>
<path d="M133.462 169.68C133.462 169.68 127.476 172.65 133.462 175.805C139.447 178.96 154.108 168.937 145.94 169.68C137.772 170.423 133.462 169.68 133.462 169.68Z" fill="#FFFBF5"/>
<path d="M139.176 108.358L138.343 127.567C138.343 127.567 142.047 130.499 140.274 132.599C138.501 134.7 133.237 133.965 132.412 132.449C131.587 130.933 138.534 105.511 139.176 108.358Z" fill="#FFFBF5"/>
<path d="M109.884 122.926C109.884 122.926 117.192 128.794 125.895 124.978C134.598 121.162 120.101 141.139 115.984 140.377C111.867 139.615 101.498 121.184 109.884 122.926Z" fill="#FFFBF5"/>
<path fill-rule="evenodd" clip-rule="evenodd" d="M127.185 132.381C127.185 132.381 127.185 132.381 127.503 132.599C127.822 132.816 127.822 132.816 127.822 132.816L127.726 132.957C127.663 133.05 127.57 133.185 127.451 133.358C127.213 133.705 126.871 134.203 126.452 134.806C125.616 136.014 124.477 137.647 123.264 139.35C122.051 141.053 120.763 142.826 119.632 144.314C118.507 145.792 117.517 147.014 116.904 147.592C116.367 148.099 116.12 148.583 116.029 149.012C115.937 149.443 115.997 149.851 116.125 150.212C116.254 150.575 116.45 150.882 116.617 151.102C116.7 151.211 116.774 151.295 116.826 151.352C116.853 151.38 116.873 151.401 116.887 151.415C116.893 151.421 116.898 151.426 116.901 151.429L116.903 151.431C116.903 151.431 116.903 151.431 116.639 151.712C116.376 151.994 116.376 151.994 116.375 151.994L116.375 151.994L116.374 151.993L116.372 151.99L116.365 151.984C116.359 151.978 116.351 151.97 116.341 151.96C116.321 151.94 116.293 151.912 116.26 151.876C116.194 151.804 116.103 151.701 116.003 151.57C115.805 151.309 115.562 150.931 115.398 150.47C115.233 150.007 115.147 149.452 115.274 148.851C115.403 148.248 115.741 147.629 116.374 147.031C116.933 146.504 117.886 145.335 119.017 143.847C120.142 142.368 121.424 140.602 122.635 138.903C123.845 137.203 124.983 135.573 125.818 134.367C126.235 133.764 126.577 133.268 126.815 132.922C126.933 132.749 127.026 132.614 127.089 132.522L127.185 132.381Z" fill="#F0CAB4"/>
<path fill-rule="evenodd" clip-rule="evenodd" d="M149.731 132.765C149.731 132.765 149.731 132.765 150.079 132.598L150.427 132.432L150.43 132.439L150.44 132.46C150.45 132.479 150.463 132.508 150.482 132.545C150.519 132.621 150.574 132.732 150.647 132.876C150.793 133.164 151.008 133.581 151.285 134.096C151.839 135.126 152.642 136.544 153.632 138.098C155.619 141.218 158.338 144.845 161.309 146.999L160.856 147.624C157.762 145.38 154.979 141.65 152.981 138.513C151.978 136.939 151.167 135.504 150.606 134.462C150.325 133.941 150.107 133.518 149.959 133.224C149.884 133.078 149.828 132.963 149.789 132.886C149.77 132.847 149.756 132.817 149.746 132.797L149.735 132.773L149.731 132.765Z" fill="#F0CAB4"/>
<path fill-rule="evenodd" clip-rule="evenodd" d="M114.108 25.2178C114.108 25.2177 114.108 25.2177 114.236 25.6438C114.364 26.0699 114.364 26.0699 114.364 26.07L114.326 26.0815L114.212 26.1161C114.112 26.1465 113.965 26.1916 113.778 26.2496C113.404 26.3657 112.869 26.534 112.225 26.7424C110.939 27.1593 109.223 27.7361 107.501 28.3763C105.776 29.0176 104.059 29.7179 102.764 30.3811C102.114 30.7136 101.588 31.0283 101.223 31.3125C101.041 31.4547 100.912 31.5796 100.829 31.6848C100.743 31.7933 100.729 31.8523 100.728 31.8663L100.675 32.3454L93.6277 30.9902V40.048L93.4554 40.1813L93.4547 40.1818L93.45 40.1856L93.4276 40.2035C93.407 40.2202 93.3752 40.2463 93.333 40.2821C93.2487 40.3537 93.1229 40.4639 92.962 40.6145C92.6403 40.9156 92.1785 41.378 91.6282 42.0155C90.5277 43.2904 89.0731 45.2658 87.6773 48.0521C87.2654 48.8706 86.8604 49.7596 86.4705 50.7228V50.7399L86.4378 50.8205C86.3138 51.1252 86.1943 51.4386 86.0738 51.7606C86.071 51.7718 86.0682 51.782 86.0654 51.791C86.0547 51.8259 86.0422 51.8538 86.0344 51.8704C86.0303 51.879 86.0261 51.8874 86.0228 51.8938C85.9105 52.2053 85.7984 52.5214 85.6863 52.8443C85.6768 52.8902 85.6635 52.9249 85.6561 52.9434C85.65 52.9585 85.6438 52.9724 85.6408 52.979C85.5304 53.3057 85.423 53.6351 85.3205 53.9768V53.9955L85.3006 54.0597C85.1893 54.4193 85.0812 54.7864 84.9763 55.1611V55.1777L84.9598 55.2367C84.8548 55.6108 84.7549 55.9941 84.6574 56.3868C84.6573 56.387 84.6574 56.3866 84.6574 56.3868L84.6248 56.5199L84.6243 56.522C84.5299 56.8996 84.4407 57.2834 84.3539 57.6764L84.353 57.6806L84.3128 57.8546C84.2312 58.2365 84.1521 58.6263 84.0755 59.0216C84.0714 59.0747 84.0623 59.1191 84.0558 59.1478C84.0481 59.1819 84.0454 59.1917 84.0437 59.1982C84.0423 59.2032 84.0415 59.2062 84.0394 59.2167C83.963 59.6279 83.8893 60.0458 83.8208 60.4732V60.52L83.8151 60.5553C83.7459 60.9836 83.6819 61.4228 83.6231 61.8678C83.6205 61.9162 83.6136 61.9561 83.6094 61.9789L83.6032 62.0123C83.6022 62.0175 83.6019 62.0197 83.6019 62.02C83.6019 62.0201 83.6019 62.02 83.6019 62.02L83.6013 62.0245C83.5445 62.4655 83.493 62.9181 83.444 63.3804L83.4196 63.6083C83.4196 63.6087 83.4195 63.609 83.4195 63.6094C83.3741 64.053 83.3339 64.5047 83.299 64.962C83.2991 65.0324 83.2987 65.1403 83.2765 65.2561C83.2425 65.7174 83.2135 66.184 83.1897 66.6583V66.8544L83.1892 66.8649C83.1647 67.3824 83.1431 67.905 83.1323 68.4373L83.1323 68.4382C83.1105 69.4094 83.1023 70.373 83.1023 71.3293C83.1023 71.9662 83.1069 72.6013 83.1159 73.2345C83.1323 74.1777 83.1541 75.1115 83.1867 76.0337C83.3834 81.3205 83.8561 86.5935 84.6031 91.831L84.6034 91.8337C84.6358 92.071 84.6709 92.309 84.7063 92.5431L84.7068 92.5463C84.7747 93.0189 84.8454 93.4785 84.9164 93.9343L84.9166 93.9359C84.9509 94.1617 84.9861 94.3838 85.0222 94.6022L85.0226 94.6045C85.0935 95.0477 85.1643 95.4809 85.2351 95.904C85.6273 98.2273 86.0222 100.24 86.368 101.868C86.6825 103.348 86.9546 104.51 87.1479 105.301C87.2446 105.697 87.3215 106 87.3742 106.203C87.3882 106.257 87.4005 106.304 87.411 106.344L91.0316 108.657L91.0646 108.852C92.2647 115.944 94.0251 123.296 94.8735 125.911C95.5559 128.022 96.6095 130.031 97.7806 131.157C98.3645 131.718 98.9366 132.021 99.471 132.061C99.9852 132.099 100.553 131.899 101.16 131.262L101.815 130.576L101.924 131.518C102.593 137.293 103.092 141.94 103.093 143.428C103.093 143.429 103.093 143.43 103.093 143.431H102.648L103.093 143.425C103.093 143.426 103.093 143.427 103.093 143.428C103.094 143.484 103.098 143.54 103.104 143.596L103.107 143.621V143.66C103.107 143.659 103.107 143.669 103.113 143.699C103.116 143.715 103.12 143.732 103.125 143.755C103.13 143.775 103.135 143.802 103.141 143.828C103.141 143.828 103.141 143.827 103.141 143.827L102.706 143.92L103.141 143.83C103.141 143.829 103.141 143.829 103.141 143.828C103.185 144.033 103.239 144.236 103.303 144.435C103.302 144.434 103.302 144.433 103.301 144.431L102.88 144.575L103.304 144.439C103.304 144.438 103.303 144.436 103.303 144.435C103.634 145.403 104.027 146.349 104.479 147.266L104.481 147.271C104.753 147.839 105.06 148.452 105.402 149.108L105.399 149.102L105.011 149.32L105.406 149.114C105.405 149.112 105.403 149.11 105.402 149.108L105.427 149.152L105.431 149.159C105.536 149.361 105.646 149.567 105.76 149.78L105.777 149.812C105.887 150.016 105.999 150.22 106.114 150.431L106.139 150.476C106.136 150.471 106.133 150.466 106.129 150.461L105.754 150.7L106.144 150.486L106.139 150.476C106.151 150.497 106.163 150.518 106.173 150.54C106.171 150.536 106.168 150.531 106.166 150.526L105.776 150.741L106.184 150.563C106.18 150.555 106.177 150.548 106.173 150.54C106.239 150.659 106.303 150.774 106.37 150.892C106.422 150.987 106.476 151.083 106.532 151.184C106.53 151.18 106.528 151.177 106.527 151.174L106.148 151.407L106.537 151.192C106.535 151.189 106.534 151.186 106.532 151.184C106.558 151.227 106.581 151.268 106.597 151.299C106.597 151.298 106.596 151.297 106.596 151.296L106.208 151.514L106.599 151.303L106.597 151.299C106.721 151.52 106.848 151.741 106.978 151.966L107.019 152.037C107.046 152.084 107.074 152.132 107.101 152.179C107.194 152.34 107.286 152.5 107.382 152.66L107.383 152.662L107.468 152.806C107.591 153.02 107.72 153.235 107.853 153.455L107.856 153.46L107.963 153.641L107.965 153.646L108.366 154.309C108.366 154.309 108.366 154.309 108.366 154.31C108.371 154.317 108.378 154.329 108.387 154.343C108.408 154.377 108.439 154.425 108.461 154.462C108.462 154.464 108.463 154.466 108.464 154.468L108.803 155.017L108.805 155.02L108.947 155.248C109.041 155.4 109.137 155.553 109.236 155.709L109.236 155.71L109.309 155.826L109.045 163.83L108.156 163.8L108.411 156.069C108.337 155.952 108.263 155.834 108.19 155.715C108.19 155.714 108.189 155.714 108.189 155.713L108.049 155.49L108.047 155.487L107.694 154.914C107.685 154.898 107.677 154.885 107.67 154.873C107.653 154.847 107.637 154.823 107.606 154.773L107.605 154.771L107.201 154.101L107.198 154.097L107.092 153.916C107.091 153.915 107.091 153.914 107.091 153.914C106.957 153.693 106.825 153.473 106.697 153.251C106.697 153.25 106.697 153.25 106.696 153.249L106.618 153.116C106.618 153.116 106.617 153.115 106.617 153.114C106.518 152.949 106.422 152.782 106.329 152.621C106.302 152.574 106.275 152.528 106.249 152.483L106.208 152.411C106.076 152.184 105.947 151.958 105.82 151.732L105.816 151.725C105.804 151.703 105.794 151.685 105.786 151.669C105.78 151.659 105.774 151.65 105.769 151.641L105.763 151.632L105.759 151.623C105.706 151.529 105.652 151.431 105.597 151.334C105.526 151.206 105.454 151.078 105.386 150.955L105.377 150.937L105.373 150.93L105.371 150.927L105.332 150.856C105.218 150.647 105.105 150.44 104.993 150.233L104.975 150.199C104.863 149.989 104.751 149.781 104.644 149.576L104.62 149.532L104.617 149.526C104.269 148.86 103.957 148.237 103.679 147.657C103.211 146.705 102.803 145.724 102.46 144.719L102.457 144.712C102.383 144.482 102.321 144.248 102.271 144.012L102.27 144.009C102.269 144.003 102.266 143.993 102.264 143.982C102.249 143.918 102.219 143.787 102.217 143.672C102.209 143.593 102.204 143.515 102.203 143.436L102.203 143.431C102.203 142.081 101.76 137.868 101.136 132.451C100.583 132.827 100.001 132.992 99.4053 132.948C98.5844 132.887 97.8271 132.436 97.164 131.798C95.8412 130.527 94.7298 128.359 94.0272 126.186C93.168 123.537 91.4232 116.248 90.2203 109.195L86.6413 106.909L86.5962 106.743L86.5958 106.741L86.5947 106.737L86.5905 106.722L86.5745 106.662C86.5604 106.608 86.5396 106.53 86.5128 106.426C86.4592 106.219 86.3813 105.912 86.2836 105.512C86.0884 104.713 85.8142 103.542 85.4977 102.053C85.1496 100.414 84.7522 98.3887 84.3577 96.0518C84.2866 95.6268 84.2154 95.1911 84.1442 94.7462C84.1076 94.5244 84.0719 94.2991 84.0371 94.0703C83.9661 93.6145 83.8949 93.1516 83.8263 92.6744C83.7908 92.4396 83.7551 92.1977 83.722 91.9552C82.9708 86.6873 82.4954 81.3838 82.2976 76.0663C82.2647 75.1367 82.2427 74.1961 82.2263 73.2493L82.2263 73.2479C82.2172 72.6102 82.2126 71.9707 82.2126 71.3293C82.2126 70.3681 82.2208 69.3979 82.2427 68.4187C82.2537 67.8785 82.2756 67.3504 82.3 66.8333V66.636L82.3006 66.6249C82.3253 66.1297 82.3556 65.6426 82.3914 65.1609L82.3939 65.1264L82.4018 65.0928C82.4074 65.0688 82.4093 65.0382 82.4093 64.9453V64.9284L82.4106 64.9116C82.4463 64.4407 82.4877 63.9752 82.5345 63.5177L82.5347 63.5156L82.5593 63.2867C82.6086 62.8209 82.6608 62.3618 82.7186 61.9128C82.7214 61.8896 82.7249 61.8692 82.7276 61.8543L82.7314 61.8337L82.734 61.8198C82.7341 61.8192 82.7342 61.8185 82.7343 61.818V61.8019L82.7382 61.773C82.7972 61.3251 82.8614 60.882 82.931 60.4488V60.4027L82.9366 60.3678C83.0083 59.918 83.0855 59.4798 83.1653 59.0508L83.1664 59.0449C83.171 59.0216 83.1762 59.0004 83.1797 58.9858L83.1824 58.9749C83.1848 58.965 83.1863 58.9591 83.1877 58.9526C83.1878 58.9524 83.1877 58.9527 83.1877 58.9526L83.1878 58.9256L83.1959 58.8838C83.2756 58.4715 83.3582 58.0643 83.4435 57.6651L83.445 57.658L83.4851 57.4846C83.4853 57.484 83.4854 57.4833 83.4856 57.4826C83.5734 57.0844 83.6643 56.6935 83.7608 56.3073C83.7609 56.3069 83.761 56.3065 83.7611 56.3062L83.7934 56.1744L83.7937 56.173C83.8878 55.7942 83.9846 55.4215 84.0866 55.0555V55.0393L84.1029 54.9807C84.2088 54.6003 84.3181 54.2271 84.4308 53.8611V53.8471L84.4492 53.7851C84.5633 53.401 84.6826 53.0348 84.8039 52.6765L84.8077 52.6651V52.6623L84.8323 52.5915C84.9532 52.2425 85.074 51.902 85.1947 51.5673L85.2002 51.5522L85.2067 51.5375C85.2078 51.5351 85.2089 51.5326 85.21 51.5302L85.2266 51.4859C85.3423 51.1765 85.4591 50.8687 85.5808 50.5663V50.5503L85.6129 50.4705C86.0217 49.4541 86.4474 48.5169 86.8818 47.6535C88.3133 44.796 89.8104 42.7599 90.9547 41.4342C91.5268 40.7714 92.0107 40.2863 92.354 39.9649C92.5144 39.8148 92.6442 39.7004 92.738 39.6202V29.9131L100.007 31.3109C100.044 31.2484 100.086 31.1892 100.13 31.1336C100.273 30.9525 100.462 30.7781 100.676 30.6108C101.106 30.2762 101.689 29.9318 102.358 29.5891C103.7 28.9019 105.456 28.1873 107.191 27.5423C108.928 26.8962 110.657 26.3152 111.951 25.896C112.598 25.6863 113.137 25.5169 113.514 25.3998C113.703 25.3413 113.851 25.2959 113.952 25.265L114.068 25.2299L114.108 25.2178Z" fill="#46403C"/>
<path d="M179.617 103.523C179.617 103.523 186.02 96.6085 188.358 100.269C190.697 103.93 188.867 113.534 188.867 113.534C188.867 113.534 189.476 103.828 186.733 103.523C183.99 103.217 181.92 111.051 178.811 110.855C175.702 110.658 179.617 103.523 179.617 103.523Z" fill="#C9AB9A"/>
<path d="M179.21 113.534C179.21 113.534 182.106 110.332 184.013 111.857C185.919 113.381 182.961 116.736 183.576 119.074C184.19 121.412 179.363 128.933 179.205 126.799C179.046 124.666 183.576 119.751 178.494 119.309C173.413 118.866 179.21 113.534 179.21 113.534Z" fill="#C9AB9A"/>
</svg>
